# xmcd
#
# Track frame offsets:
#	150
#	20687
#	27825
#	70525
#	82187
#	132500
#	146112
#	190287
#	208350
#
# Disc length: 2834 seconds
#
# Revision: 2
# Processed by: cddbd v1.5.2PL0 Copyright (c) Steve Scherf et al.
# Submitted via: EZCDAudioConverter 2.1.7.1
#
DISCID=8a0b1009
DTITLE=Peter Gabriel - Snowflake
DYEAR=1900
DGENRE=
TTITLE0=Out Of Grey Skies
TTITLE1=22 Words For Snow
TTITLE2=Snowflake (Part 1)
TTITLE3=Downstream
TTITLE4=Snowflake (Part 2)
TTITLE5=The Fire Is Out
TTITLE6=Snowflake (Part 3)
TTITLE7=Come Home To Me Now
TTITLE8=And Fainter Beat Her Heart
EXTD=
EXTT0=
EXTT1=
EXTT2=
EXTT3=
EXTT4=
EXTT5=
EXTT6=
EXTT7=
EXTT8=
PLAYORDER=
